<svg width="500" height="500" viewBox="0 0 500 500" fill="none" xmlns="http://www.w3.org/2000/svg">
<path d="M440.893 427.12C463.233 374.56 468.967 308.24 462.58 247.42C461.37 235.834 459.587 224.399 457.247 213.21C441.553 138.69 401.293 79 353.647 47.59C308.187 17.59 250.72 2.76999 207.647 48.94C179.287 79.34 163.227 128.06 137.26 162.16C124.353 179.16 110.227 184.61 94.8667 194.75C57.4467 219.46 26.12 267.11 23.5467 330C22.0072 363.995 27.4168 397.887 39.0533 427.15L440.893 427.12Z" fill="#1FA3A2"/>
<path opacity="0.8" d="M440.893 427.12C463.233 374.56 468.967 308.24 462.58 247.42C461.37 235.834 459.587 224.399 457.247 213.21C441.553 138.69 401.293 79 353.647 47.59C308.187 17.59 250.72 2.76999 207.647 48.94C179.287 79.34 163.227 128.06 137.26 162.16C124.353 179.16 110.227 184.61 94.8667 194.75C57.4467 219.46 26.12 267.11 23.5467 330C22.0072 363.995 27.4168 397.887 39.0533 427.15L440.893 427.12Z" fill="white"/>
<path d="M260.36 82.35C260.213 81.64 260.053 80.94 259.88 80.23C253.607 54.05 224.413 52.23 224.413 84.42C224.413 90.61 214.5 84.42 210.787 92.42C207.073 100.42 211.2 105.42 206.24 107.91C201.28 110.4 200.873 104.19 194.673 104.81C188.473 105.43 189.307 114.1 187.24 116.58C185.173 119.06 185.173 117.82 180.633 118.44C176.093 119.06 175.26 124.02 175.26 124.02H283.927C283.927 124.02 288.053 105.43 280.593 98.62C273.133 91.81 273.16 101.09 267.373 97.38C262.593 94.36 261.7 88.53 260.36 82.35Z" stroke="#B2B2B2" stroke-linecap="round" stroke-linejoin="round"/>
<path d="M264.12 117.29C264.12 117.29 266.367 106.86 260.847 99.18C255.327 91.5 249.593 95.81 247.96 99.18C246.327 102.55 246.32 109 243.66 109.62C241 110.24 241.62 102.87 235.887 104.71C230.153 106.55 232.413 115.14 229.753 116.98C227.093 118.82 227.087 112.07 223.407 114.22C219.727 116.37 219.933 120.36 219.933 120.36" stroke="#B2B2B2" stroke-linecap="round" stroke-linejoin="round"/>
<path d="M234.74 96.44C233.233 94.8325 231.466 93.8587 229.623 93.6196C227.781 93.3805 225.929 93.8847 224.26 95.08C218.34 99.18 221.073 107.72 218.34 109.77C215.607 111.82 214.24 109.42 210.82 111.77C207.4 114.12 207.633 117.57 207.633 117.57" stroke="#B2B2B2" stroke-linecap="round" stroke-linejoin="round"/>
<path d="M182.04 140.48C181.973 140.18 181.9 139.87 181.827 139.56C179.1 128.17 166.4 127.39 166.4 141.38C166.4 144.08 162.087 141.38 160.467 144.88C158.847 148.38 160.647 150.55 158.467 151.62C156.287 152.69 156.127 150.01 153.433 150.28C150.74 150.55 151.093 154.28 150.2 155.4C149.307 156.52 149.3 155.94 147.32 156.21C145.34 156.48 144.987 158.63 144.987 158.63H192.247C192.247 158.63 194.047 150.55 190.807 147.63C187.567 144.71 187.573 148.71 185.06 147.09C183.007 145.7 182.62 143.17 182.04 140.48Z" stroke="#B2B2B2" stroke-linecap="round" stroke-linejoin="round"/>
<path d="M183.673 155.68C183.935 154.298 183.941 152.834 183.689 151.447C183.438 150.061 182.939 148.803 182.247 147.81C179.847 144.47 177.353 146.34 176.64 147.81C175.927 149.28 175.927 152.08 174.773 152.35C173.62 152.62 173.88 149.41 171.387 150.21C168.893 151.01 169.873 154.75 168.72 155.55C167.567 156.35 167.56 153.41 165.96 154.35C164.36 155.29 164.447 157.02 164.447 157.02" stroke="#B2B2B2" stroke-linecap="round" stroke-linejoin="round"/>
<path d="M170.887 146.61C170.232 145.91 169.465 145.486 168.664 145.382C167.863 145.278 167.058 145.498 166.333 146.02C163.753 147.8 164.94 151.52 163.753 152.41C162.567 153.3 161.973 152.26 160.487 153.3C159 154.34 159.1 155.83 159.1 155.83" stroke="#B2B2B2" stroke-linecap="round" stroke-linejoin="round"/>
<path d="M432.08 140.48C432.013 140.18 431.947 139.87 431.873 139.56C429.14 128.17 416.44 127.39 416.44 141.38C416.44 144.08 412.127 141.38 410.513 144.88C408.9 148.38 410.693 150.55 408.513 151.62C406.333 152.69 406.18 150.01 403.487 150.28C400.793 150.55 401.147 154.28 400.247 155.4C399.347 156.52 399.353 155.94 397.373 156.21C395.393 156.48 395.04 158.63 395.04 158.63H442.3C442.3 158.63 444.093 150.55 440.86 147.63C437.627 144.71 437.627 148.71 435.113 147.09C433.053 145.7 432.667 143.17 432.08 140.48Z" stroke="#B2B2B2" stroke-linecap="round" stroke-linejoin="round"/>
<path d="M433.713 155.68C433.975 154.298 433.982 152.836 433.731 151.449C433.481 150.063 432.984 148.805 432.293 147.81C429.887 144.47 427.4 146.34 426.687 147.81C425.973 149.28 425.973 152.08 424.813 152.35C423.653 152.62 423.927 149.41 421.433 150.21C418.94 151.01 419.92 154.75 418.767 155.55C417.613 156.35 417.607 153.41 416.007 154.35C414.407 155.29 414.493 157.02 414.493 157.02" stroke="#B2B2B2" stroke-linecap="round" stroke-linejoin="round"/>
<path d="M420.933 146.61C420.278 145.909 419.509 145.484 418.707 145.38C417.905 145.277 417.099 145.498 416.373 146.02C413.8 147.8 414.987 151.52 413.8 152.41C412.613 153.3 412.013 152.26 410.527 153.3C409.04 154.34 409.14 155.83 409.14 155.83" stroke="#B2B2B2" stroke-linecap="round" stroke-linejoin="round"/>
<path d="M73.4533 392.7C74.4142 393.08 75.4071 393.245 76.4 393.19C76.4 393.19 75.9533 391.14 75.9133 391.02C75.4533 389.58 74.0067 387.2 72.8267 387.44C72.631 387.487 72.4441 387.595 72.2783 387.758C72.1124 387.921 71.9714 388.134 71.8644 388.384C71.7574 388.635 71.6868 388.916 71.6574 389.21C71.6279 389.504 71.6401 389.804 71.6933 390.09C71.841 390.692 72.0752 391.238 72.3794 391.689C72.6836 392.14 73.0502 392.485 73.4533 392.7V392.7Z" fill="#263238"/>
<path d="M94 425.9C94.0879 425.633 94.1375 425.342 94.1453 425.044C94.1532 424.747 94.1193 424.45 94.0457 424.174C93.9721 423.898 93.8605 423.648 93.7183 423.44C93.576 423.233 93.4063 423.073 93.22 422.97C92.0933 422.41 90.3667 424.33 89.74 425.61C89.74 425.67 89.5 426.21 89.3067 426.71H93.6067C93.7681 426.476 93.9012 426.202 94 425.9V425.9Z" fill="#263238"/>
<path d="M87.6133 417.57C88.3854 418.346 89.2334 418.936 90.1267 419.32C90.04 419.94 89.9533 420.55 89.8467 421.15C89.7733 421.55 89.72 421.94 89.6267 422.34C89.5333 422.74 89.46 423.12 89.3733 423.51C89.1933 424.25 89.0133 425.01 88.8267 425.72C88.74 426.07 88.6533 426.39 88.5667 426.72H89.2667C89.32 426.51 89.3733 426.3 89.4267 426.07C89.6067 425.33 89.7733 424.59 89.9533 423.79L90.1933 422.61C90.2733 422.22 90.3333 421.79 90.4 421.37C90.5533 420.37 90.68 419.42 90.7933 418.37C91.6733 418.916 92.6044 419.253 93.5533 419.37C93.9817 419.366 94.4045 419.223 94.7924 418.95C95.1803 418.677 95.5241 418.282 95.8 417.79C95.9136 417.547 95.9917 417.27 96.0295 416.978C96.0672 416.687 96.0636 416.386 96.019 416.097C95.9743 415.807 95.8897 415.535 95.7704 415.298C95.6511 415.061 95.5 414.864 95.3267 414.72C94.2667 413.91 92.3667 415.41 91.6133 416.54C91.5667 416.61 91.0867 417.54 90.8333 418.01C90.8933 417.41 90.96 416.8 91.0067 416.19C91.1533 414.42 91.2667 412.62 91.3867 410.83C91.3867 410.28 91.46 409.73 91.5 409.18C92.412 409.727 93.374 410.065 94.3533 410.18C94.7817 410.176 95.2045 410.033 95.5924 409.76C95.9803 409.487 96.3241 409.092 96.6 408.6C96.7136 408.357 96.7917 408.08 96.8295 407.788C96.8672 407.497 96.8636 407.196 96.819 406.907C96.7743 406.617 96.6897 406.345 96.5704 406.108C96.4511 405.871 96.2999 405.674 96.1267 405.53C95.0667 404.72 93.1667 406.22 92.4133 407.35C92.36 407.43 91.6667 408.73 91.5067 409.07C91.5867 407.86 91.68 406.66 91.8067 405.48C91.9607 403.89 92.1833 402.317 92.4733 400.77C93.3922 401.318 94.3609 401.655 95.3467 401.77C95.7742 401.767 96.1963 401.625 96.5832 401.352C96.9701 401.079 97.3126 400.682 97.5867 400.19C97.7012 399.948 97.7801 399.672 97.8184 399.381C97.8566 399.09 97.8533 398.79 97.8085 398.5C97.7638 398.211 97.6787 397.94 97.5589 397.703C97.4391 397.467 97.2872 397.272 97.1133 397.13C96.0533 396.31 94.16 397.82 93.4067 398.95C93.3467 399.03 92.6067 400.43 92.48 400.69C92.4987 400.601 92.5142 400.511 92.5267 400.42C92.8521 398.88 93.2693 397.387 93.7733 395.96C94.0467 395.16 94.3333 394.42 94.6267 393.72C95.4802 394.399 96.3972 394.881 97.3467 395.15C97.7725 395.22 98.2034 395.149 98.6089 394.941C99.0144 394.734 99.3846 394.395 99.6933 393.95C99.8239 393.728 99.9218 393.466 99.9805 393.183C100.039 392.9 100.058 392.602 100.034 392.307C100.011 392.013 99.9467 391.729 99.8454 391.475C99.7442 391.22 99.6083 391.001 99.4467 390.83C98.4533 389.83 96.46 391.03 95.6267 392.02C95.58 392.08 95.16 392.7 94.86 393.16L95.2667 392.22C95.76 391.09 96.2667 390.11 96.7133 389.22C96.9733 388.73 97.2133 388.3 97.44 387.89C98.4016 387.911 99.3596 387.708 100.28 387.29C100.679 387.056 101.039 386.694 101.335 386.229C101.631 385.765 101.856 385.209 101.993 384.6C102.041 384.313 102.048 384.013 102.013 383.722C101.979 383.43 101.904 383.153 101.793 382.908C101.683 382.662 101.539 382.455 101.371 382.298C101.203 382.142 101.016 382.04 100.82 382C99.6333 381.81 98.2267 384.24 97.7933 385.7C97.7533 385.83 97.32 387.9 97.3467 387.9C97.1267 388.28 96.8867 388.69 96.6333 389.15C96.1733 390 95.6533 390.97 95.14 392.09C94.574 393.28 94.0553 394.519 93.5867 395.8C93.0497 397.227 92.6033 398.727 92.2533 400.28C92.2533 400.28 92.2533 400.28 92.2533 400.33C92.2533 399.81 92.2533 398.33 92.2533 398.23C92.12 396.65 91.2333 393.72 90.06 393.39C89.8643 393.345 89.6643 393.362 89.4733 393.441C89.2823 393.519 89.1045 393.657 88.9516 393.846C88.7987 394.035 88.6741 394.27 88.5859 394.536C88.4977 394.802 88.448 395.093 88.44 395.39C88.4563 396.031 88.5656 396.66 88.7601 397.231C88.9547 397.803 89.2299 398.304 89.5667 398.7C90.3911 399.502 91.2896 400.119 92.2333 400.53C91.8993 402.119 91.6365 403.739 91.4467 405.38C91.3333 406.38 91.24 407.3 91.1533 408.28C91.1533 407.82 91.1533 407.42 91.1533 407.36C91.0133 405.78 90.1333 402.85 88.96 402.52C88.7639 402.475 88.5637 402.492 88.3723 402.571C88.1809 402.649 88.0027 402.787 87.8493 402.976C87.6958 403.164 87.5706 403.399 87.4817 403.666C87.3928 403.932 87.3423 404.223 87.3333 404.52C87.3514 405.162 87.462 405.79 87.6577 406.362C87.8534 406.933 88.1294 407.434 88.4667 407.83C89.2638 408.619 90.1359 409.222 91.0533 409.62C91.0533 409.99 90.9933 410.36 90.96 410.74C90.82 412.53 90.68 414.32 90.5133 416.07C90.4533 416.69 90.38 417.29 90.3067 417.89C90.3067 417.49 90.3067 417.15 90.3067 417.1C90.1733 415.52 89.2867 412.59 88.12 412.26C87.9239 412.215 87.7237 412.232 87.5323 412.311C87.3409 412.389 87.1627 412.527 87.0093 412.716C86.8558 412.904 86.7306 413.139 86.6417 413.406C86.5528 413.672 86.5023 413.963 86.4933 414.26C86.5097 414.9 86.6183 415.528 86.8117 416.099C87.005 416.67 87.2785 417.172 87.6133 417.57V417.57Z" fill="#263238"/>
<path d="M74.18 401.79C75.1643 401.78 76.142 401.547 77.08 401.1C77.3862 402.702 77.7626 404.272 78.2067 405.8C78.4667 406.69 78.74 407.57 79.0267 408.46C78.86 408.08 78.7067 407.75 78.68 407.71C78.0133 406.5 76.1667 404.78 75.0667 405.48C74.8879 405.605 74.7285 405.785 74.5988 406.007C74.4691 406.23 74.372 406.491 74.3136 406.774C74.2552 407.057 74.2368 407.354 74.2598 407.648C74.2827 407.942 74.3464 408.225 74.4467 408.48C74.6974 409 75.0203 409.432 75.3933 409.746C75.7662 410.06 76.1802 410.249 76.6067 410.3C77.5632 410.298 78.514 410.079 79.4267 409.65C79.5333 409.99 79.6467 410.33 79.76 410.65C80.3 412.26 80.84 413.87 81.34 415.47C81.52 416.04 81.68 416.6 81.84 417.16C81.6933 416.83 81.56 416.56 81.54 416.52C80.8733 415.31 79.0267 413.59 77.9267 414.29C77.7472 414.414 77.5871 414.593 77.4568 414.815C77.3265 415.038 77.2289 415.299 77.1704 415.582C77.1119 415.865 77.0938 416.164 77.1173 416.458C77.1408 416.752 77.2053 417.036 77.3067 417.29C77.556 417.813 77.8786 418.247 78.2517 418.563C78.6248 418.88 79.0395 419.07 79.4667 419.12C80.3958 419.125 81.3199 418.916 82.2067 418.5C82.36 419.09 82.52 419.67 82.6467 420.25C82.7333 420.65 82.8333 421.02 82.9 421.43L83.12 422.62C83.2467 423.38 83.3733 424.17 83.48 424.91C83.56 425.43 83.6267 425.91 83.6933 426.43C83.52 425.87 83.1667 424.77 83.1333 424.69C82.5667 423.34 80.9467 421.23 79.8 421.69C79.6093 421.771 79.432 421.911 79.2798 422.102C79.1275 422.292 79.0037 422.528 78.9163 422.795C78.8289 423.062 78.7799 423.354 78.7725 423.651C78.7651 423.948 78.7995 424.244 78.8733 424.52C79.0502 425.049 79.2987 425.517 79.6028 425.894C79.907 426.271 80.2603 426.549 80.64 426.71H84.42C84.42 426.59 84.38 426.47 84.3667 426.34C84.9242 426.007 85.4675 425.623 85.9933 425.19C86.4131 425.787 86.8838 426.299 87.3933 426.71H88.5C88.56 426.09 88.6267 425.33 88.6267 425.25C88.6172 423.844 88.3645 422.466 87.8933 421.25C87.9068 421.094 87.9068 420.936 87.8933 420.78C87.8696 420.485 87.8046 420.201 87.7026 419.947C87.6007 419.692 87.4641 419.473 87.3017 419.303C87.1394 419.133 86.955 419.016 86.7605 418.961C86.5661 418.905 86.366 418.912 86.1733 418.98C85.02 419.44 84.2933 422.47 84.2333 424.07C84.2333 424.16 84.2733 425.19 84.3067 425.83C84.2467 425.46 84.1933 425.09 84.1333 424.71C84.0133 423.94 83.8733 423.19 83.7333 422.37L83.4933 421.19C83.42 420.79 83.3067 420.39 83.22 419.98C82.9867 419.05 82.7267 418.12 82.4533 417.19C83.3883 416.904 84.288 416.401 85.12 415.7C85.4761 415.344 85.7762 414.876 85.9996 414.329C86.2229 413.781 86.3641 413.168 86.4133 412.53C86.4176 412.233 86.3804 411.938 86.3041 411.664C86.2279 411.389 86.1142 411.142 85.9704 410.938C85.8266 410.733 85.6559 410.576 85.4693 410.477C85.2826 410.377 85.0842 410.338 84.8867 410.36C83.7067 410.56 82.68 413.36 82.4667 414.95C82.4667 415.05 82.38 416.19 82.3467 416.82C82.18 416.27 82.0133 415.71 81.8333 415.16C81.3 413.56 80.7333 411.97 80.1667 410.37L79.66 408.91C80.6234 408.608 81.5514 408.093 82.4133 407.38C82.7685 407.023 83.0679 406.554 83.2912 406.007C83.5144 405.46 83.6561 404.847 83.7067 404.21C83.711 403.913 83.6739 403.619 83.5975 403.345C83.5212 403.071 83.4073 402.825 83.2634 402.621C83.1195 402.417 82.9488 402.261 82.7621 402.163C82.5755 402.065 82.3772 402.026 82.18 402.05C81 402.24 79.9733 405.05 79.7533 406.63C79.7533 406.75 79.64 408.4 79.6267 408.82C79.2533 407.74 78.8933 406.66 78.56 405.58C78.107 404.12 77.7195 402.617 77.4 401.08C78.3668 400.774 79.2988 400.259 80.1667 399.55C80.5223 399.191 80.822 398.721 81.0453 398.172C81.2685 397.623 81.41 397.009 81.46 396.37C81.4644 396.073 81.4272 395.779 81.3508 395.505C81.2745 395.231 81.1607 394.985 81.0168 394.781C80.8729 394.577 80.7021 394.421 80.5155 394.323C80.3288 394.225 80.1305 394.186 79.9333 394.21C78.7533 394.4 77.7267 397.21 77.5133 398.79C77.5133 398.91 77.3867 400.69 77.38 401.01C77.38 400.93 77.34 400.84 77.32 400.75C77.011 399.198 76.7924 397.609 76.6667 396C76.6 395.12 76.5667 394.26 76.5533 393.43C77.5145 393.294 78.4563 392.94 79.3467 392.38C79.7267 392.084 80.0594 391.668 80.3219 391.16C80.5843 390.653 80.7702 390.066 80.8667 389.44C80.8927 389.148 80.8782 388.852 80.824 388.569C80.7699 388.286 80.6772 388.023 80.552 387.797C80.4267 387.57 80.2715 387.385 80.0962 387.253C79.9209 387.121 79.7292 387.045 79.5333 387.03C78.34 387.03 77.1133 389.67 76.7867 391.19C76.7867 391.27 76.6467 392.14 76.5667 392.78C76.5667 392.4 76.5667 392.01 76.5667 391.65C76.5667 390.3 76.6267 389.07 76.68 387.97C76.72 387.35 76.76 386.79 76.8 386.26C77.6088 385.481 78.3328 384.52 78.9467 383.41C79.1921 382.884 79.3585 382.284 79.4344 381.652C79.5104 381.021 79.4941 380.371 79.3867 379.75C79.3201 379.471 79.2152 379.215 79.0788 379C78.9423 378.786 78.7773 378.616 78.5945 378.503C78.4116 378.39 78.215 378.336 78.0173 378.344C77.8195 378.352 77.6252 378.422 77.4467 378.55C76.3867 379.37 76.1133 382.55 76.2867 384.14C76.2867 384.28 76.7 386.36 76.72 386.34C76.6733 386.85 76.6267 387.39 76.5867 387.98C76.5133 389.08 76.44 390.31 76.4133 391.67C76.3827 393.131 76.4072 394.593 76.4867 396.05C76.5707 397.681 76.7514 399.297 77.0267 400.88V400.94C76.84 400.5 76.2867 399.29 76.24 399.2C75.5733 398 73.7267 396.28 72.6267 396.98C72.4472 397.104 72.2871 397.283 72.1568 397.505C72.0265 397.728 71.9289 397.989 71.8704 398.272C71.8119 398.555 71.7938 398.854 71.8173 399.148C71.8408 399.442 71.9053 399.726 72.0067 399.98C72.2591 400.501 72.5844 400.933 72.9599 401.246C73.3353 401.558 73.7517 401.744 74.18 401.79V401.79Z" fill="#263238"/>
<path d="M94.6 393.39C94.6 393.39 94.98 391.31 94.9933 391.17C95.14 389.59 94.8 386.41 93.7267 385.63C93.5462 385.509 93.3508 385.446 93.1531 385.446C92.9554 385.446 92.76 385.508 92.5795 385.629C92.3989 385.75 92.2374 385.926 92.1054 386.147C91.9734 386.368 91.8739 386.628 91.8133 386.91C91.7164 387.536 91.7116 388.185 91.7991 388.814C91.8866 389.442 92.0643 390.035 92.32 390.55C92.9829 391.659 93.7511 392.616 94.6 393.39V393.39Z" fill="#263238"/>
<path d="M52.6667 405.8C53.2583 406.031 53.8691 406.132 54.48 406.1C54.48 406.1 54.2067 404.84 54.18 404.76C53.9 403.88 53.0067 402.41 52.28 402.56C52.162 402.593 52.0499 402.663 51.951 402.765C51.8521 402.868 51.7685 403 51.7057 403.153C51.6429 403.307 51.6022 403.478 51.5863 403.657C51.5704 403.836 51.5796 404.017 51.6133 404.19C51.7027 404.555 51.8428 404.888 52.0244 405.165C52.206 405.443 52.425 405.659 52.6667 405.8V405.8Z" fill="#263238"/>
<path d="M65.2733 426.21C65.3278 426.047 65.3586 425.868 65.364 425.686C65.3693 425.503 65.349 425.321 65.3044 425.152C65.2597 424.982 65.1917 424.828 65.1048 424.7C65.0179 424.572 64.9141 424.474 64.8 424.41C64.1333 424.06 63.04 425.25 62.6533 426.04C62.6533 426.04 62.5067 426.4 62.3933 426.71H65.06C65.1527 426.566 65.2253 426.396 65.2733 426.21V426.21Z" fill="#263238"/>
<path d="M61.3333 421.09C61.8091 421.566 62.3307 421.931 62.88 422.17C62.8267 422.55 62.7733 422.93 62.7067 423.29C62.64 423.65 62.6267 423.78 62.5733 424.02C62.52 424.26 62.4667 424.51 62.42 424.74C62.3067 425.2 62.1933 425.67 62.08 426.1L61.92 426.71H62.3533L62.4533 426.31C62.56 425.86 62.66 425.4 62.7733 424.91C62.82 424.67 62.8667 424.43 62.92 424.18C62.9733 423.93 63.0067 423.68 63.0467 423.42C63.1467 422.83 63.22 422.22 63.2867 421.6C63.8296 421.927 64.4031 422.126 64.9867 422.19C65.2515 422.185 65.5124 422.093 65.7509 421.92C65.9893 421.748 66.1996 421.498 66.3667 421.19C66.437 421.04 66.4855 420.87 66.5089 420.69C66.5323 420.51 66.53 420.325 66.5023 420.146C66.4746 419.968 66.4221 419.8 66.3482 419.654C66.2742 419.509 66.1806 419.388 66.0733 419.3C65.4067 418.8 64.26 419.73 63.7933 420.42L63.3133 421.32C63.3533 420.95 63.3933 420.58 63.42 420.21C63.5133 419.12 63.58 418.01 63.6533 416.91C63.6533 416.57 63.7 416.23 63.72 415.91C64.2833 416.243 64.8764 416.449 65.48 416.52C65.7448 416.515 66.0057 416.423 66.2442 416.25C66.4827 416.078 66.6929 415.828 66.86 415.52C66.9303 415.371 66.9787 415.201 67.002 415.022C67.0253 414.843 67.023 414.659 66.9953 414.481C66.9676 414.303 66.915 414.136 66.8411 413.992C66.7673 413.847 66.6737 413.727 66.5667 413.64C65.9 413.14 64.7533 414.06 64.2867 414.76C64.2867 414.81 63.8267 415.6 63.7267 415.81C63.78 415.07 63.8333 414.33 63.9133 413.61C64.0094 412.63 64.1498 411.661 64.3333 410.71C64.8991 411.044 65.4942 411.253 66.1 411.33C66.3648 411.325 66.6257 411.233 66.8642 411.06C67.1027 410.888 67.3129 410.638 67.48 410.33C67.5503 410.181 67.5987 410.011 67.622 409.832C67.6453 409.653 67.643 409.469 67.6153 409.291C67.5876 409.113 67.535 408.946 67.4611 408.802C67.3873 408.657 67.2937 408.537 67.1867 408.45C66.52 407.94 65.3733 408.87 64.9067 409.56C64.8733 409.62 64.4133 410.47 64.34 410.64C64.3424 410.583 64.3424 410.527 64.34 410.47C64.5432 409.522 64.7997 408.602 65.1067 407.72C65.2733 407.24 65.4533 406.78 65.6333 406.35C66.1583 406.768 66.7225 407.065 67.3067 407.23C67.5681 407.271 67.8324 407.226 68.0812 407.099C68.3299 406.971 68.557 406.763 68.7467 406.49C68.8268 406.353 68.8868 406.192 68.9227 406.018C68.9586 405.843 68.9698 405.66 68.9553 405.479C68.9408 405.298 68.9011 405.123 68.8388 404.967C68.7764 404.81 68.6928 404.675 68.5933 404.57C67.9867 403.96 66.76 404.69 66.2467 405.31C66.2467 405.31 65.96 405.72 65.78 406.01C65.86 405.81 65.94 405.61 66.0267 405.43C66.3333 404.73 66.64 404.13 66.9133 403.6L67.36 402.78C67.9514 402.79 68.5404 402.666 69.1067 402.41C69.3525 402.267 69.5746 402.045 69.7577 401.76C69.9407 401.475 70.0803 401.134 70.1667 400.76C70.1958 400.583 70.1998 400.398 70.1782 400.218C70.1566 400.039 70.1101 399.868 70.0415 399.717C69.9729 399.566 69.8839 399.438 69.7803 399.342C69.6767 399.246 69.5607 399.184 69.44 399.16C68.7133 399.04 67.8467 400.53 67.58 401.43C67.58 401.51 67.2867 402.78 67.3067 402.78C67.1667 403.01 67.02 403.27 66.8667 403.55C66.58 404.08 66.26 404.67 65.9467 405.36C65.598 406.09 65.2796 406.851 64.9933 407.64C64.6658 408.518 64.3914 409.438 64.1733 410.39C64.1733 410.39 64.1733 410.39 64.1733 410.39C64.1733 410.07 64.1733 409.17 64.1733 409.1C64.0933 408.1 63.5467 406.32 62.84 406.1C62.7201 406.073 62.5977 406.084 62.4808 406.132C62.3639 406.181 62.2549 406.265 62.1608 406.38C62.0667 406.494 61.9896 406.637 61.9344 406.799C61.8792 406.961 61.847 407.138 61.84 407.32C61.8507 407.705 61.9157 408.082 62.0306 408.427C62.1455 408.772 62.3077 409.076 62.5067 409.32C63.0117 409.818 63.5649 410.195 64.1467 410.44C63.9434 411.423 63.7831 412.425 63.6667 413.44C63.5933 414.02 63.54 414.62 63.4867 415.22C63.4867 414.94 63.4867 414.69 63.4867 414.66C63.4 413.66 62.86 411.88 62.1533 411.66C62.0331 411.63 61.91 411.639 61.7922 411.686C61.6744 411.733 61.5645 411.816 61.47 411.932C61.3754 412.047 61.2983 412.191 61.2437 412.355C61.1891 412.518 61.1583 412.697 61.1533 412.88C61.1641 413.265 61.229 413.642 61.3439 413.987C61.4588 414.332 61.6211 414.636 61.82 414.88C62.3114 415.367 62.8484 415.741 63.4133 415.99C63.4133 416.22 63.3733 416.45 63.36 416.68C63.2667 417.78 63.1867 418.88 63.08 419.95C63.04 420.33 63 420.7 62.9533 421.08C62.9533 420.83 62.9533 420.62 62.9533 420.59C62.8667 419.59 62.32 417.81 61.62 417.59C61.5001 417.563 61.3777 417.574 61.2608 417.623C61.1439 417.671 61.0349 417.755 60.9408 417.87C60.8467 417.984 60.7696 418.127 60.7144 418.289C60.6592 418.451 60.627 418.628 60.62 418.81C60.6081 419.248 60.6667 419.684 60.7909 420.081C60.9151 420.478 61.1011 420.824 61.3333 421.09V421.09Z" fill="#263238"/>
<path d="M53.08 411.38C53.6841 411.375 54.2841 411.234 54.86 410.96C55.037 411.945 55.2597 412.911 55.5267 413.85C55.68 414.4 55.8533 414.94 56.0267 415.49L55.8133 415.03C55.3867 414.28 54.2667 413.23 53.5933 413.66C53.4831 413.736 53.3847 413.845 53.3045 413.981C53.2243 414.118 53.164 414.278 53.1275 414.451C53.0911 414.625 53.0793 414.808 53.0929 414.988C53.1066 415.169 53.1453 415.343 53.2067 415.5C53.3609 415.821 53.5601 416.088 53.7905 416.282C54.0209 416.475 54.2767 416.591 54.54 416.62C55.1277 416.624 55.7123 416.493 56.2733 416.23L56.4733 416.85C56.8067 417.85 57.14 418.85 57.4533 419.85C57.56 420.2 57.66 420.55 57.76 420.85L57.5733 420.45C57.1467 419.71 56.0267 418.66 55.3533 419.09C55.2431 419.166 55.1447 419.275 55.0645 419.411C54.9843 419.548 54.924 419.708 54.8875 419.881C54.8511 420.055 54.8393 420.238 54.8529 420.418C54.8666 420.599 54.9053 420.773 54.9667 420.93C55.1209 421.251 55.3201 421.518 55.5505 421.712C55.7809 421.905 56.0367 422.021 56.3 422.05C56.8722 422.06 57.4417 421.932 57.9867 421.67C58.0867 422.03 58.18 422.39 58.26 422.75C58.34 423.11 58.3733 423.22 58.4133 423.47L58.5533 424.21C58.6267 424.67 58.7067 425.21 58.7733 425.62C58.84 426.03 58.86 426.24 58.9 426.55C58.8 426.21 58.58 425.55 58.56 425.48C58.2133 424.65 57.2267 423.35 56.5 423.62C56.3834 423.671 56.2752 423.758 56.1825 423.876C56.0898 423.993 56.0146 424.139 55.9618 424.303C55.909 424.467 55.8798 424.646 55.876 424.828C55.8722 425.01 55.8941 425.191 55.94 425.36C56.0458 425.687 56.1968 425.977 56.383 426.21C56.5693 426.442 56.7864 426.613 57.02 426.71H59.3467C59.3436 426.637 59.3436 426.563 59.3467 426.49C59.4333 426.43 59.9133 426.14 60.3467 425.78C60.6035 426.148 60.8928 426.461 61.2067 426.71H61.8733C61.9133 426.33 61.9533 425.86 61.9533 425.81C61.9455 424.948 61.7893 424.104 61.5 423.36C61.5068 423.264 61.5068 423.166 61.5 423.07C61.4846 422.889 61.444 422.715 61.3808 422.559C61.3177 422.404 61.2334 422.269 61.1334 422.166C61.0334 422.062 60.92 421.991 60.8006 421.957C60.6811 421.923 60.5583 421.928 60.44 421.97C59.7267 422.25 59.28 424.11 59.2467 425.09C59.2467 425.15 59.2467 425.78 59.2933 426.18C59.2533 425.95 59.22 425.72 59.1867 425.48L58.94 424.05C58.8867 423.81 58.84 423.57 58.7933 423.32C58.7467 423.07 58.68 422.83 58.62 422.58C58.48 422.01 58.32 421.43 58.1467 420.86C58.7204 420.692 59.2721 420.384 59.78 419.95C59.9986 419.73 60.1832 419.442 60.3212 419.105C60.4592 418.769 60.5475 418.392 60.58 418C60.5833 417.817 60.5607 417.635 60.5139 417.466C60.4671 417.297 60.3971 417.145 60.3083 417.02C60.2196 416.894 60.1142 416.798 59.999 416.738C59.8839 416.678 59.7615 416.654 59.64 416.67C58.9133 416.78 58.3067 418.52 58.1467 419.48C58.1467 419.54 58.1 420.25 58.08 420.64C57.9733 420.3 57.8733 419.95 57.76 419.64C57.4333 418.64 57.0933 417.64 56.74 416.7C56.6333 416.4 56.5267 416.1 56.4267 415.8C57.0191 415.615 57.5898 415.298 58.12 414.86C58.3389 414.641 58.5233 414.353 58.6603 414.017C58.7974 413.68 58.8837 413.302 58.9133 412.91C58.9191 412.728 58.8994 412.547 58.8555 412.377C58.8115 412.207 58.7443 412.054 58.6582 411.925C58.5721 411.797 58.4691 411.698 58.3557 411.633C58.2423 411.568 58.1211 411.54 58 411.55C57.2733 411.67 56.6667 413.41 56.5133 414.37C56.5133 414.44 56.44 415.46 56.4333 415.71C56.2 415.05 55.98 414.39 55.7667 413.71C55.485 412.83 55.2401 411.925 55.0333 411C55.6315 410.802 56.2051 410.465 56.7333 410C56.9541 409.783 57.1403 409.496 57.2786 409.159C57.4168 408.822 57.5038 408.443 57.5333 408.05C57.5366 407.867 57.5141 407.685 57.4673 407.516C57.4204 407.347 57.3504 407.195 57.2617 407.07C57.1729 406.944 57.0675 406.848 56.9524 406.788C56.8372 406.728 56.7149 406.704 56.5933 406.72C55.8667 406.84 55.26 408.58 55.1 409.54C55.1 409.61 55.0267 410.71 55.0267 410.91L54.9867 410.74C54.8076 409.784 54.6827 408.807 54.6133 407.82C54.5733 407.27 54.56 406.75 54.5467 406.24C55.1379 406.149 55.7173 405.93 56.2667 405.59C56.5006 405.408 56.7052 405.152 56.8664 404.839C57.0276 404.527 57.1414 404.165 57.2 403.78C57.2169 403.599 57.2082 403.415 57.1744 403.239C57.1406 403.063 57.0825 402.9 57.0038 402.761C56.9252 402.621 56.8278 402.508 56.718 402.428C56.6082 402.349 56.4885 402.305 56.3667 402.3C55.6333 402.3 54.88 403.92 54.6733 404.86L54.54 405.86C54.54 405.63 54.54 405.39 54.54 405.17C54.54 404.34 54.58 403.58 54.6133 402.91C54.6133 402.53 54.66 402.18 54.6867 401.86C55.1859 401.374 55.635 400.781 56.02 400.1C56.1714 399.777 56.2738 399.408 56.3199 399.019C56.3659 398.631 56.3546 398.231 56.2867 397.85C56.2464 397.677 56.1822 397.52 56.0982 397.387C56.0143 397.255 55.9125 397.151 55.7997 397.082C55.6869 397.013 55.5655 396.98 55.4438 396.987C55.322 396.994 55.2025 397.039 55.0933 397.12C54.4267 397.62 54.2733 399.59 54.38 400.55C54.38 400.64 54.64 401.92 54.6467 401.91C54.6467 402.22 54.5933 402.56 54.5667 402.91C54.52 403.58 54.4733 404.35 54.46 405.18C54.4399 406.077 54.4555 406.976 54.5067 407.87C54.5551 408.883 54.6667 409.888 54.84 410.87L54.3533 409.8C53.9267 409.06 52.8067 408.01 52.1333 408.43C52.0229 408.507 51.9244 408.617 51.8441 408.754C51.7639 408.892 51.7036 409.052 51.6672 409.227C51.6308 409.401 51.619 409.585 51.6327 409.766C51.6464 409.947 51.6852 410.122 51.7467 410.28C51.9022 410.598 52.1021 410.861 52.3324 411.051C52.5627 411.241 52.8178 411.353 53.08 411.38V411.38Z" fill="#263238"/>
<path d="M65.6333 406.22C65.6333 406.22 65.8667 404.94 65.88 404.86C65.9667 403.86 65.76 401.93 65.1 401.45C64.989 401.377 64.869 401.339 64.7477 401.339C64.6264 401.339 64.5064 401.376 64.3954 401.45C64.2844 401.523 64.1847 401.63 64.1029 401.765C64.0211 401.899 63.9588 402.058 63.92 402.23C63.861 402.615 63.8585 403.015 63.9126 403.402C63.9667 403.788 64.0761 404.153 64.2333 404.47C64.6409 405.152 65.1125 405.742 65.6333 406.22Z" fill="#263238"/>
<path d="M401.253 405.8C401.845 406.031 402.456 406.133 403.067 406.1C403.067 406.1 402.787 404.84 402.767 404.76C402.48 403.88 401.587 402.41 400.867 402.56C400.75 402.596 400.639 402.668 400.541 402.771C400.443 402.873 400.36 403.005 400.298 403.158C400.235 403.311 400.194 403.481 400.178 403.659C400.161 403.836 400.168 404.017 400.2 404.19C400.29 404.554 400.43 404.886 400.612 405.164C400.794 405.441 401.012 405.658 401.253 405.8Z" fill="#263238"/>
<path d="M413.893 426.21C413.947 426.046 413.976 425.867 413.981 425.684C413.985 425.502 413.964 425.32 413.919 425.151C413.874 424.981 413.805 424.828 413.718 424.7C413.631 424.573 413.527 424.474 413.413 424.41C412.747 424.06 411.66 425.25 411.273 426.04C411.273 426.04 411.127 426.4 411.007 426.71H413.673C413.767 426.565 413.841 426.396 413.893 426.21V426.21Z" fill="#263238"/>
<path d="M409.96 421.09C410.435 421.568 410.957 421.933 411.507 422.17C411.447 422.55 411.4 422.93 411.333 423.29C411.267 423.65 411.253 423.78 411.2 424.02C411.147 424.26 411.093 424.51 411.04 424.74C410.933 425.2 410.82 425.67 410.707 426.1L410.547 426.71H410.973L411.073 426.31C411.187 425.86 411.287 425.4 411.4 424.91C411.447 424.67 411.493 424.43 411.547 424.18C411.6 423.93 411.627 423.68 411.673 423.42C411.767 422.83 411.847 422.22 411.913 421.6C412.456 421.929 413.03 422.128 413.613 422.19C413.878 422.185 414.139 422.092 414.377 421.919C414.616 421.747 414.826 421.498 414.993 421.19C415.063 421.04 415.11 420.869 415.133 420.69C415.156 420.51 415.153 420.326 415.126 420.148C415.098 419.97 415.046 419.802 414.973 419.656C414.899 419.51 414.806 419.389 414.7 419.3C414.033 418.8 412.88 419.73 412.42 420.42C412.42 420.42 412.093 421.02 411.94 421.32C411.973 420.95 412.013 420.58 412.047 420.21C412.14 419.12 412.207 418.01 412.28 416.91C412.28 416.57 412.327 416.23 412.347 415.91C412.91 416.244 413.503 416.45 414.107 416.52C414.371 416.515 414.632 416.422 414.871 416.249C415.109 416.077 415.319 415.828 415.487 415.52C415.556 415.37 415.603 415.201 415.626 415.022C415.649 414.843 415.646 414.659 415.619 414.482C415.591 414.305 415.539 414.138 415.466 413.993C415.392 413.848 415.3 413.728 415.193 413.64C414.527 413.14 413.373 414.06 412.913 414.76C412.913 414.81 412.453 415.6 412.353 415.81C412.407 415.07 412.46 414.33 412.533 413.61C412.635 412.631 412.777 411.662 412.96 410.71C413.525 411.047 414.121 411.256 414.727 411.33C414.991 411.325 415.252 411.232 415.491 411.059C415.729 410.887 415.939 410.638 416.107 410.33C416.176 410.18 416.223 410.011 416.246 409.832C416.269 409.653 416.266 409.469 416.239 409.292C416.211 409.115 416.159 408.948 416.086 408.803C416.012 408.658 415.92 408.538 415.813 408.45C415.147 407.94 413.993 408.87 413.533 409.56C413.493 409.62 413.04 410.47 412.967 410.64C412.963 410.583 412.963 410.527 412.967 410.47C413.167 409.521 413.424 408.601 413.733 407.72C413.9 407.24 414.08 406.78 414.26 406.35C414.783 406.767 415.345 407.064 415.927 407.23C416.189 407.273 416.455 407.229 416.705 407.101C416.955 406.973 417.183 406.764 417.373 406.49C417.453 406.353 417.513 406.192 417.549 406.018C417.585 405.843 417.596 405.66 417.582 405.479C417.568 405.298 417.528 405.123 417.465 404.967C417.403 404.81 417.319 404.675 417.22 404.57C416.613 403.96 415.387 404.69 414.873 405.31C414.873 405.31 414.587 405.72 414.4 406.01L414.647 405.43C414.953 404.73 415.267 404.13 415.54 403.6L415.987 402.78C416.578 402.79 417.167 402.666 417.733 402.41C417.978 402.265 418.198 402.042 418.38 401.757C418.562 401.473 418.701 401.133 418.787 400.76C418.817 400.583 418.822 400.399 418.801 400.219C418.781 400.039 418.735 399.868 418.667 399.717C418.599 399.566 418.51 399.438 418.406 399.342C418.303 399.246 418.187 399.184 418.067 399.16C417.333 399.04 416.473 400.53 416.207 401.43C416.207 401.51 415.913 402.78 415.927 402.78C415.787 403.01 415.64 403.27 415.487 403.55C415.2 404.08 414.88 404.67 414.56 405.36C414.216 406.095 413.898 406.856 413.607 407.64C413.284 408.52 413.012 409.44 412.793 410.39C412.793 410.07 412.793 409.17 412.793 409.1C412.713 408.1 412.167 406.32 411.46 406.1C411.34 406.072 411.217 406.082 411.1 406.129C410.982 406.177 410.873 406.261 410.779 406.376C410.684 406.491 410.607 406.634 410.552 406.797C410.498 406.96 410.466 407.138 410.46 407.32C410.472 407.705 410.537 408.082 410.652 408.426C410.767 408.771 410.928 409.075 411.127 409.32C411.635 409.816 412.19 410.194 412.773 410.44C412.568 411.423 412.405 412.425 412.287 413.44C412.22 414.02 412.16 414.62 412.107 415.22C412.107 414.94 412.107 414.69 412.107 414.66C412.02 413.66 411.48 411.88 410.773 411.66C410.653 411.63 410.53 411.639 410.412 411.686C410.294 411.733 410.185 411.816 410.09 411.932C409.995 412.047 409.918 412.191 409.864 412.355C409.809 412.518 409.778 412.697 409.773 412.88C409.781 413.266 409.845 413.645 409.96 413.99C410.075 414.336 410.239 414.639 410.44 414.88C410.93 415.37 411.467 415.745 412.033 415.99L411.973 416.68C411.887 417.78 411.8 418.88 411.7 419.95C411.66 420.33 411.613 420.7 411.573 421.08C411.573 420.83 411.573 420.62 411.573 420.59C411.493 419.59 410.947 417.81 410.24 417.59C410.12 417.562 409.997 417.572 409.88 417.619C409.763 417.667 409.653 417.751 409.559 417.866C409.464 417.981 409.387 418.124 409.332 418.287C409.278 418.45 409.246 418.628 409.24 418.81C409.229 419.249 409.289 419.685 409.414 420.082C409.539 420.479 409.727 420.825 409.96 421.09V421.09Z" fill="#263238"/>
<path d="M401.693 411.38C402.3 411.375 402.902 411.234 403.48 410.96C403.66 411.944 403.882 412.91 404.147 413.85C404.307 414.4 404.473 414.94 404.653 415.49L404.44 415.03C404.007 414.28 402.893 413.23 402.22 413.66C402.11 413.736 402.011 413.845 401.931 413.981C401.851 414.118 401.791 414.278 401.754 414.451C401.718 414.625 401.706 414.808 401.72 414.988C401.733 415.169 401.772 415.343 401.833 415.5C401.987 415.822 402.186 416.09 402.417 416.284C402.647 416.477 402.903 416.592 403.167 416.62C403.754 416.625 404.339 416.494 404.9 416.23C404.973 416.43 405.04 416.64 405.107 416.85C405.44 417.85 405.773 418.85 406.08 419.85C406.193 420.2 406.287 420.55 406.387 420.85L406.2 420.45C405.773 419.71 404.66 418.66 403.98 419.09C403.87 419.167 403.773 419.277 403.693 419.414C403.614 419.55 403.554 419.71 403.518 419.884C403.482 420.057 403.471 420.24 403.485 420.42C403.499 420.6 403.538 420.774 403.6 420.93C403.754 421.252 403.953 421.52 404.183 421.714C404.414 421.907 404.67 422.022 404.933 422.05C405.506 422.06 406.075 421.932 406.62 421.67C406.713 422.03 406.813 422.39 406.893 422.75C406.973 423.11 407.007 423.22 407.047 423.47L407.187 424.21C407.26 424.67 407.34 425.21 407.407 425.62C407.473 426.03 407.493 426.24 407.533 426.55C407.427 426.21 407.213 425.55 407.187 425.48C406.84 424.65 405.853 423.35 405.133 423.62C405.016 423.67 404.907 423.756 404.814 423.873C404.72 423.991 404.644 424.136 404.591 424.3C404.537 424.464 404.508 424.644 404.503 424.826C404.499 425.009 404.521 425.191 404.567 425.36C404.675 425.687 404.827 425.976 405.014 426.208C405.202 426.441 405.419 426.612 405.653 426.71H408C407.992 426.636 407.981 426.562 407.967 426.49C408.053 426.43 408.54 426.14 408.973 425.78C409.23 426.148 409.52 426.461 409.833 426.71H410.5C410.5 426.33 410.58 425.86 410.58 425.81C410.569 424.949 410.414 424.106 410.127 423.36C410.134 423.264 410.134 423.166 410.127 423.07C410.112 422.888 410.072 422.714 410.009 422.557C409.947 422.4 409.862 422.266 409.762 422.162C409.662 422.058 409.548 421.987 409.428 421.954C409.308 421.921 409.185 421.926 409.067 421.97C408.36 422.25 407.913 424.11 407.88 425.09C407.88 425.15 407.88 425.78 407.92 426.18C407.887 425.95 407.853 425.72 407.813 425.48C407.74 425.02 407.66 424.55 407.567 424.05C407.52 423.81 407.473 423.57 407.42 423.32C407.367 423.07 407.307 422.83 407.253 422.58C407.113 422.01 406.953 421.43 406.78 420.86C407.353 420.69 407.905 420.383 408.413 419.95C408.632 419.731 408.816 419.443 408.953 419.106C409.09 418.769 409.177 418.392 409.207 418C409.211 417.818 409.189 417.636 409.143 417.467C409.097 417.298 409.028 417.146 408.94 417.02C408.851 416.894 408.746 416.798 408.631 416.738C408.517 416.677 408.395 416.654 408.273 416.67C407.547 416.78 406.94 418.52 406.78 419.48C406.78 419.54 406.727 420.25 406.713 420.64C406.607 420.3 406.507 419.95 406.393 419.64C406.067 418.64 405.727 417.64 405.367 416.7C405.267 416.4 405.16 416.1 405.053 415.8C405.646 415.618 406.217 415.301 406.747 414.86C406.967 414.643 407.152 414.355 407.289 414.018C407.426 413.681 407.512 413.303 407.54 412.91C407.544 412.728 407.523 412.546 407.477 412.377C407.43 412.208 407.361 412.056 407.273 411.93C407.185 411.804 407.08 411.708 406.965 411.648C406.85 411.587 406.728 411.564 406.607 411.58C405.88 411.7 405.273 413.44 405.113 414.4C405.113 414.47 405.047 415.49 405.04 415.74C404.807 415.08 404.58 414.42 404.373 413.74C404.094 412.842 403.856 411.916 403.66 410.97C404.248 410.778 404.812 410.451 405.333 410C405.553 409.783 405.738 409.495 405.875 409.158C406.013 408.821 406.098 408.443 406.127 408.05C406.131 407.868 406.109 407.686 406.063 407.517C406.017 407.348 405.948 407.196 405.86 407.07C405.771 406.944 405.666 406.848 405.551 406.788C405.437 406.727 405.315 406.704 405.193 406.72C404.467 406.84 403.86 408.58 403.7 409.54C403.7 409.61 403.627 410.71 403.62 410.91C403.62 410.85 403.62 410.8 403.587 410.74C403.404 409.785 403.28 408.808 403.213 407.82C403.173 407.27 403.153 406.75 403.147 406.24C403.738 406.148 404.317 405.929 404.867 405.59C405.1 405.406 405.304 405.15 405.465 404.838C405.626 404.525 405.74 404.165 405.8 403.78C405.816 403.599 405.806 403.415 405.772 403.24C405.738 403.065 405.68 402.903 405.601 402.764C405.523 402.625 405.426 402.511 405.317 402.431C405.207 402.352 405.088 402.307 404.967 402.3C404.233 402.3 403.473 403.92 403.273 404.86L403.14 405.86C403.14 405.63 403.14 405.39 403.14 405.17C403.14 404.34 403.14 403.58 403.213 402.91C403.213 402.53 403.26 402.18 403.28 401.86C403.782 401.379 404.232 400.786 404.613 400.1C404.766 399.778 404.869 399.409 404.917 399.021C404.964 398.632 404.954 398.232 404.887 397.85C404.846 397.678 404.781 397.522 404.697 397.39C404.613 397.259 404.511 397.155 404.398 397.086C404.286 397.017 404.165 396.985 404.044 396.991C403.922 396.996 403.803 397.041 403.693 397.12C403.027 397.62 402.873 399.59 402.98 400.55C402.98 400.64 403.233 401.92 403.247 401.91C403.247 402.22 403.187 402.56 403.16 402.91C403.12 403.58 403.073 404.35 403.06 405.18C403.041 406.077 403.054 406.975 403.1 407.87C403.155 408.882 403.267 409.886 403.433 410.87C403.32 410.6 402.98 409.87 402.953 409.8C402.52 409.06 401.407 408.01 400.733 408.43C400.623 408.507 400.524 408.617 400.444 408.754C400.364 408.892 400.304 409.052 400.267 409.227C400.231 409.401 400.219 409.585 400.233 409.766C400.246 409.947 400.285 410.122 400.347 410.28C400.503 410.601 400.705 410.867 400.938 411.057C401.171 411.247 401.429 411.357 401.693 411.38Z" fill="#263238"/>
<path d="M414.253 406.22C414.253 406.22 414.487 404.94 414.493 404.86C414.587 403.86 414.38 401.93 413.72 401.45C413.609 401.377 413.489 401.339 413.368 401.339C413.246 401.339 413.126 401.376 413.015 401.45C412.904 401.523 412.805 401.63 412.723 401.765C412.641 401.899 412.579 402.058 412.54 402.23C412.481 402.615 412.479 403.015 412.533 403.402C412.587 403.788 412.696 404.153 412.853 404.47C413.261 405.152 413.733 405.742 414.253 406.22V406.22Z" fill="#263238"/>
<path d="M46.2533 161.26C46.2533 161.26 76.0733 165.68 91.18 193.41C91.18 193.41 107.147 161.29 135.847 161.95C142.855 149.27 147.318 133.864 148.715 117.526C150.113 101.188 148.387 84.5915 143.74 69.6678C139.092 54.7442 131.714 42.1079 122.465 33.2303C113.215 24.3528 102.475 19.5992 91.4938 19.5232C80.513 19.4472 69.7436 24.0519 60.4398 32.8011C51.136 41.5502 43.6805 54.0838 38.9416 68.9425C34.2026 83.8012 32.3752 100.373 33.672 116.73C34.9688 133.086 39.3366 148.553 46.2667 161.33L46.2533 161.26Z" fill="#1FA3A2"/>
<path opacity="0.4" d="M46.2533 161.26C46.2533 161.26 76.0733 165.68 91.18 193.41C91.18 193.41 107.147 161.29 135.847 161.95C142.855 149.27 147.318 133.864 148.715 117.526C150.113 101.188 148.387 84.5915 143.74 69.6678C139.092 54.7442 131.714 42.1079 122.465 33.2303C113.215 24.3528 102.475 19.5992 91.4938 19.5232C80.513 19.4472 69.7436 24.0519 60.4398 32.8011C51.136 41.5502 43.6805 54.0838 38.9416 68.9425C34.2026 83.8012 32.3752 100.373 33.672 116.73C34.9688 133.086 39.3366 148.553 46.2667 161.33L46.2533 161.26Z" fill="white"/>
<path d="M119.893 111C119.893 111 102.067 117.34 92.2267 138.84L91.6667 107.57L91.7067 107.98C91.7067 107.98 101.773 80.81 119.893 72.5C119.893 72.5 101.227 79.14 91.5667 101.86L90.1933 59.76L89.7733 120.1C80.2933 98.49 63.02 92.1 63.02 92.1C78.28 99.35 87.6133 120.97 89.7467 126.35L89.6067 157.45C80.0933 136.14 63.02 129.85 63.02 129.85C77.9133 136.92 87.1667 157.69 89.58 163.68L89.1867 427.22H94.22L93 181.83C96.2467 174.46 105.54 156.05 119.893 149.47C119.893 149.47 102.847 155.54 92.8933 175.91L92.34 144.91C94.7867 139 104.387 118.08 119.893 111Z" fill="#263238"/>
<path d="M119.893 111C119.893 111 102.067 117.34 92.2267 138.84L91.6667 107.57L91.7067 107.98C91.7067 107.98 101.773 80.81 119.893 72.5C119.893 72.5 101.227 79.14 91.5667 101.86L90.1933 59.76L89.7733 120.1C80.2933 98.49 63.02 92.1 63.02 92.1C78.28 99.35 87.6133 120.97 89.7467 126.35L89.6067 157.45C80.0933 136.14 63.02 129.85 63.02 129.85C77.9133 136.92 87.1667 157.69 89.58 163.68L89.1867 427.22H94.22L93 181.83C96.2467 174.46 105.54 156.05 119.893 149.47C119.893 149.47 102.847 155.54 92.8933 175.91L92.34 144.91C94.7867 139 104.387 118.08 119.893 111Z" fill="#263238"/>
<path d="M23.42 304.65C23.42 304.65 47.7267 308.26 60.0867 330.87C60.0867 330.87 73.1067 304.68 96.4867 305.22C102.198 294.881 105.835 282.322 106.973 269.003C108.111 255.685 106.703 242.156 102.914 229.99C99.1251 217.825 93.1103 207.525 85.57 200.288C78.0298 193.052 69.2743 189.176 60.3228 189.114C51.3714 189.051 42.5922 192.804 35.0074 199.935C27.4225 207.066 21.3441 217.282 17.4797 229.394C13.6152 241.506 12.1238 255.015 13.179 268.348C14.2342 281.682 17.7926 294.292 23.44 304.71L23.42 304.65Z" fill="#1FA3A2"/>
<path opacity="0.4" d="M23.42 304.65C23.42 304.65 47.7267 308.26 60.0867 330.87C60.0867 330.87 73.1067 304.68 96.4867 305.22C102.198 294.881 105.835 282.322 106.973 269.003C108.111 255.685 106.703 242.156 102.914 229.99C99.1251 217.825 93.1103 207.525 85.57 200.288C78.0298 193.052 69.2743 189.176 60.3228 189.114C51.3714 189.051 42.5922 192.804 35.0074 199.935C27.4225 207.066 21.3441 217.282 17.4797 229.394C13.6152 241.506 12.1238 255.015 13.179 268.348C14.2342 281.682 17.7926 294.292 23.44 304.71L23.42 304.65Z" fill="white"/>
<path d="M37.0867 279C49.2333 284.77 56.7733 301.7 58.74 306.59L58.5667 427.08H62.06L61.5333 321.43C64.2 315.43 71.76 300.43 83.46 295.05C83.46 295.05 69.56 299.99 61.46 316.6L61.0067 291.3C63.0067 286.49 70.8333 269.45 83.4733 263.65C83.4733 263.65 68.94 268.82 60.92 286.35L60.46 260.85V261.19C60.46 261.19 68.6667 239 83.46 232.26C83.46 232.26 68.2467 237.68 60.36 256.2L59.2467 221.88L58.9 271.07C51.1733 253.45 37.0867 248.26 37.0867 248.26C49.5267 254.17 57.14 271.8 58.88 276.19L58.7667 301.55C51.0067 284.18 37.0867 279 37.0867 279Z" fill="#263238"/>
<path d="M37.0867 279C49.2333 284.77 56.7733 301.7 58.74 306.59L58.5667 427.08H62.06L61.5333 321.43C64.2 315.43 71.76 300.43 83.46 295.05C83.46 295.05 69.56 299.99 61.46 316.6L61.0067 291.3C63.0067 286.49 70.8333 269.45 83.4733 263.65C83.4733 263.65 68.94 268.82 60.92 286.35L60.46 260.85V261.19C60.46 261.19 68.6667 239 83.46 232.26C83.46 232.26 68.2467 237.68 60.36 256.2L59.2467 221.88L58.9 271.07C51.1733 253.45 37.0867 248.26 37.0867 248.26C49.5267 254.17 57.14 271.8 58.88 276.19L58.7667 301.55C51.0067 284.18 37.0867 279 37.0867 279Z" fill="#263238"/>
<path d="M373.573 304.65C373.573 304.65 397.887 308.26 410.207 330.87C410.207 330.87 423.227 304.68 446.607 305.22C452.322 294.881 455.962 282.319 457.102 268.998C458.242 255.676 456.835 242.143 453.046 229.973C449.258 217.804 443.242 207.5 435.7 200.261C428.158 193.021 419.4 189.145 410.446 189.082C401.492 189.02 392.711 192.774 385.124 199.908C377.538 207.041 371.458 217.261 367.594 229.377C363.73 241.493 362.24 255.006 363.297 268.343C364.354 281.68 367.916 294.292 373.567 304.71L373.573 304.65Z" fill="#1FA3A2"/>
<path opacity="0.4" d="M373.573 304.65C373.573 304.65 397.887 308.26 410.207 330.87C410.207 330.87 423.227 304.68 446.607 305.22C452.322 294.881 455.962 282.319 457.102 268.998C458.242 255.676 456.835 242.143 453.046 229.973C449.258 217.804 443.242 207.5 435.7 200.261C428.158 193.021 419.4 189.145 410.446 189.082C401.492 189.02 392.711 192.774 385.124 199.908C377.538 207.041 371.458 217.261 367.594 229.377C363.73 241.493 362.24 255.006 363.297 268.343C364.354 281.68 367.916 294.292 373.567 304.71L373.573 304.65Z" fill="white"/>
<path d="M387.247 279C399.387 284.77 406.933 301.7 408.9 306.59L408.72 427.08H412.213L411.693 321.39C414.36 315.39 421.913 300.39 433.613 295.01C433.613 295.01 419.72 299.95 411.613 316.56L411.153 291.26C413.153 286.45 420.98 269.41 433.62 263.61C433.62 263.61 419.087 268.78 411.067 286.31L410.607 260.81L410.64 261.15C410.64 261.15 418.847 238.99 433.62 232.22C433.62 232.22 418.413 237.64 410.527 256.16L409.413 221.84L409.067 271.03C401.333 253.41 387.253 248.22 387.253 248.22C399.693 254.13 407.307 271.76 409.04 276.15L408.927 301.51C401.167 284.18 387.247 279 387.247 279Z" fill="#263238"/>
<path d="M387.247 279C399.387 284.77 406.933 301.7 408.9 306.59L408.72 427.08H412.213L411.693 321.39C414.36 315.39 421.913 300.39 433.613 295.01C433.613 295.01 419.72 299.95 411.613 316.56L411.153 291.26C413.153 286.45 420.98 269.41 433.62 263.61C433.62 263.61 419.087 268.78 411.067 286.31L410.607 260.81L410.64 261.15C410.64 261.15 418.847 238.99 433.62 232.22C433.62 232.22 418.413 237.64 410.527 256.16L409.413 221.84L409.067 271.03C401.333 253.41 387.253 248.22 387.253 248.22C399.693 254.13 407.307 271.76 409.04 276.15L408.927 301.51C401.167 284.18 387.247 279 387.247 279Z" fill="#263238"/>
<path d="M337.827 143.23L313.8 179.27" stroke="#263238" stroke-linecap="round" stroke-linejoin="round"/>
<path d="M310.473 184.26L313.247 174.35L314.053 178.89L317.08 180.1L310.473 184.26Z" fill="#263238"/>
<path d="M350.413 150.4L338.887 180.11" stroke="#263238" stroke-linecap="round" stroke-linejoin="round"/>
<path d="M336.52 186.21L337.513 175.57L339.067 179.66H342.2L336.52 186.21Z" fill="#263238"/>
<path d="M343.033 110.02L268.447 179.87" stroke="#263238" stroke-linecap="round" stroke-linejoin="round"/>
<path d="M264.453 183.61L268.647 174.89L268.747 179.59L271.513 181.79L264.453 183.61Z" fill="#263238"/>
<path d="M373.939 123.63C385.676 119.968 393.212 102.727 390.77 85.1215C388.329 67.5159 376.835 56.2123 365.098 59.8743C353.361 63.5363 345.825 80.777 348.267 98.3826C350.708 115.988 362.202 127.292 373.939 123.63Z" fill="#D6DF27" stroke="#263238" stroke-miterlimit="10"/>
<path d="M369.52 35.13V50.76" stroke="#263238" stroke-miterlimit="10"/>
<path d="M369.52 132.81V148.44" stroke="#263238" stroke-miterlimit="10"/>
<path d="M407.287 91.79H396.867" stroke="#263238" stroke-miterlimit="10"/>
<path d="M342.167 91.79H331.747" stroke="#263238" stroke-miterlimit="10"/>
<path d="M396.227 51.72L388.86 62.78" stroke="#263238" stroke-miterlimit="10"/>
<path d="M350.18 120.8L342.807 131.85" stroke="#263238" stroke-miterlimit="10"/>
<path d="M342.807 51.72L350.18 62.78" stroke="#263238" stroke-miterlimit="10"/>
<path d="M388.86 120.8L396.227 131.85" stroke="#263238" stroke-miterlimit="10"/>
<path d="M384.6 319.61H107.16V426.68H384.6V319.61Z" fill="white"/>
<path opacity="0.31" d="M384.6 319.61H107.16V338.67H384.6V319.61Z" fill="black"/>
<path d="M384.6 319.61H107.16V426.68H384.6V319.61Z" stroke="#263238" stroke-linecap="round" stroke-linejoin="round"/>
<path d="M387.447 319.61H104.32V324.51H387.447V319.61Z" fill="white" stroke="#263238" stroke-linecap="round" stroke-linejoin="round"/>
<path d="M388.193 319.69H101.287L125.193 196.73H364.28L388.193 319.69Z" fill="#263238" stroke="#263238" stroke-linecap="round" stroke-linejoin="round"/>
<path d="M158.927 300.26H115.787L132.207 208.91L170.067 209.15L158.927 300.26Z" fill="#1FA3A2" stroke="white" stroke-miterlimit="10"/>
<path d="M141.527 209.09L126.46 300.1" stroke="white" stroke-miterlimit="10"/>
<path d="M151.313 209.15L137.607 300.1" stroke="white" stroke-miterlimit="10"/>
<path d="M161.087 209.21L148.733 300.1" stroke="white" stroke-miterlimit="10"/>
<path d="M129.993 221.58L168.807 221.79" stroke="white" stroke-miterlimit="10"/>
<path d="M127.387 236.09L167.04 236.26" stroke="white" stroke-miterlimit="10"/>
<path d="M124.66 251.24L165.2 251.37" stroke="white" stroke-miterlimit="10"/>
<path d="M121.82 267.07L163.28 267.17" stroke="white" stroke-miterlimit="10"/>
<path d="M118.84 283.64L161.267 283.69" stroke="white" stroke-miterlimit="10"/>
<path d="M209.32 300.26H166.48L176.7 209.19L214.327 209.42L209.32 300.26Z" fill="#1FA3A2" stroke="white" stroke-miterlimit="10"/>
<path d="M185.973 209.37L177.067 300.1" stroke="white" stroke-miterlimit="10"/>
<path d="M195.7 209.43L188.14 300.1" stroke="white" stroke-miterlimit="10"/>
<path d="M205.413 209.49L199.193 300.1" stroke="white" stroke-miterlimit="10"/>
<path d="M175.34 221.82L213.92 222.03" stroke="white" stroke-miterlimit="10"/>
<path d="M173.72 236.29L213.127 236.46" stroke="white" stroke-miterlimit="10"/>
<path d="M172.027 251.4L212.3 251.53" stroke="white" stroke-miterlimit="10"/>
<path d="M170.26 267.18L211.44 267.28" stroke="white" stroke-miterlimit="10"/>
<path d="M168.407 283.7L210.54 283.75" stroke="white" stroke-miterlimit="10"/>
<path d="M329.847 300.26H372.98L356.56 208.91L318.707 209.15L329.847 300.26Z" fill="#1FA3A2" stroke="white" stroke-miterlimit="10"/>
<path d="M347.24 209.09L362.307 300.1" stroke="white" stroke-miterlimit="10"/>
<path d="M337.453 209.15L351.16 300.1" stroke="white" stroke-miterlimit="10"/>
<path d="M327.687 209.21L340.033 300.1" stroke="white" stroke-miterlimit="10"/>
<path d="M358.78 221.58L319.96 221.79" stroke="white" stroke-miterlimit="10"/>
<path d="M361.387 236.09L321.727 236.26" stroke="white" stroke-miterlimit="10"/>
<path d="M364.107 251.24L323.567 251.37" stroke="white" stroke-miterlimit="10"/>
<path d="M366.953 267.07L325.493 267.17" stroke="white" stroke-miterlimit="10"/>
<path d="M369.927 283.64L327.507 283.69" stroke="white" stroke-miterlimit="10"/>
<path d="M279.447 300.26H322.287L312.067 209.19L274.44 209.42L279.447 300.26Z" fill="#1FA3A2" stroke="white" stroke-miterlimit="10"/>
<path d="M302.8 209.37L311.7 300.1" stroke="white" stroke-miterlimit="10"/>
<path d="M293.073 209.43L300.633 300.1" stroke="white" stroke-miterlimit="10"/>
<path d="M283.36 209.49L289.58 300.1" stroke="white" stroke-miterlimit="10"/>
<path d="M313.427 221.82L274.853 222.03" stroke="white" stroke-miterlimit="10"/>
<path d="M315.047 236.29L275.64 236.46" stroke="white" stroke-miterlimit="10"/>
<path d="M316.74 251.4L276.467 251.53" stroke="white" stroke-miterlimit="10"/>
<path d="M318.513 267.18L277.327 267.28" stroke="white" stroke-miterlimit="10"/>
<path d="M320.36 283.7L278.227 283.75" stroke="white" stroke-miterlimit="10"/>
<path d="M229.873 338.66H224.513V352.59H229.873V338.66Z" fill="#CCCCCC"/>
<path d="M229.873 355.52H224.513V367.99H229.873V355.52Z" fill="#CCCCCC"/>
<path d="M229.873 370.91H224.513V383.38H229.873V370.91Z" fill="#CCCCCC"/>
<path d="M229.873 386.31H224.513V402.3H229.873V386.31Z" fill="#CCCCCC"/>
<path d="M223.147 386.31H216.687V402.3H223.147V386.31Z" fill="#CCCCCC"/>
<path d="M223.147 370.91H216.687V383.38H223.147V370.91Z" fill="#CCCCCC"/>
<path d="M223.147 355.52H216.687V367.99H223.147V355.52Z" fill="#CCCCCC"/>
<path d="M223.147 338.66H216.687V352.59H223.147V338.66Z" fill="#CCCCCC"/>
<path d="M274.393 338.66H269.027V352.59H274.393V338.66Z" fill="#CCCCCC"/>
<path d="M274.393 355.52H269.027V367.99H274.393V355.52Z" fill="#CCCCCC"/>
<path d="M274.393 370.91H269.027V383.38H274.393V370.91Z" fill="#CCCCCC"/>
<path d="M274.393 386.31H269.027V402.3H274.393V386.31Z" fill="#CCCCCC"/>
<path d="M267.66 386.31H261.2V402.3H267.66V386.31Z" fill="#CCCCCC"/>
<path d="M267.66 370.91H261.2V383.38H267.66V370.91Z" fill="#CCCCCC"/>
<path d="M267.66 355.52H261.2V367.99H267.66V355.52Z" fill="#CCCCCC"/>
<path d="M267.66 338.66H261.2V352.59H267.66V338.66Z" fill="#CCCCCC"/>
<path d="M259.573 337.98H231.74V417.96H259.573V337.98Z" fill="#1FA3A2" stroke="#263238" stroke-linecap="round" stroke-linejoin="round"/>
<path d="M255.98 342.7H235.78V381.76H255.98V342.7Z" stroke="#263238" stroke-width="0.5" stroke-linecap="round" stroke-linejoin="round"/>
<path d="M255.98 396.57H235.78V412.73H255.98V396.57Z" stroke="#263238" stroke-width="0.5" stroke-linecap="round" stroke-linejoin="round"/>
<path d="M255.98 386.47H235.78V392.53H255.98V386.47Z" stroke="#263238" stroke-width="0.5" stroke-linecap="round" stroke-linejoin="round"/>
<path d="M234.973 376.93H232.447V389.73H234.973V376.93Z" fill="#263238"/>
<path d="M246.107 332.86C248.691 332.86 250.787 329.717 250.787 325.84C250.787 321.963 248.691 318.82 246.107 318.82C243.522 318.82 241.427 321.963 241.427 325.84C241.427 329.717 243.522 332.86 246.107 332.86Z" stroke="#263238" stroke-linecap="round" stroke-linejoin="round"/>
<path d="M247.933 338.67H244.267L243.553 331.89H248.647L247.933 338.67Z" fill="white" stroke="#263238" stroke-width="2" stroke-linecap="round" stroke-linejoin="round"/>
<path d="M247.573 326.51H244.627L243.087 331.88H249.107L247.573 326.51Z" fill="white" stroke="#263238" stroke-linecap="round" stroke-linejoin="round"/>
<path d="M246.833 323.84H245.367V326.45H246.833V323.84Z" fill="#263238" stroke="#263238" stroke-linecap="round" stroke-linejoin="round"/>
<path d="M220.62 327.81L227.787 324.42C238.593 319.327 250.165 319.163 261.033 323.95L269.773 327.81H284.033V302L244.367 231.55L205.447 302V327.77L220.62 327.81Z" fill="white" stroke="#263238" stroke-linecap="round" stroke-linejoin="round"/>
<path d="M284.033 417.26H205.447V426.69H284.033V417.26Z" fill="#263238" stroke="#263238" stroke-linecap="round" stroke-linejoin="round"/>
<path d="M221.367 418.22V425.6" stroke="#B0B0B0" stroke-linecap="round" stroke-linejoin="round"/>
<path d="M225.433 418.22V425.6" stroke="#B0B0B0" stroke-linecap="round" stroke-linejoin="round"/>
<path d="M229.493 418.22V425.6" stroke="#B0B0B0" stroke-linecap="round" stroke-linejoin="round"/>
<path d="M233.56 418.22V425.6" stroke="#B0B0B0" stroke-linecap="round" stroke-linejoin="round"/>
<path d="M237.627 418.22V425.6" stroke="#B0B0B0" stroke-linecap="round" stroke-linejoin="round"/>
<path d="M241.693 418.22V425.6" stroke="#B0B0B0" stroke-linecap="round" stroke-linejoin="round"/>
<path d="M245.753 418.22V425.6" stroke="#B0B0B0" stroke-linecap="round" stroke-linejoin="round"/>
<path d="M249.82 418.22V425.6" stroke="#B0B0B0" stroke-linecap="round" stroke-linejoin="round"/>
<path d="M253.887 418.22V425.6" stroke="#B0B0B0" stroke-linecap="round" stroke-linejoin="round"/>
<path d="M257.953 418.22V425.6" stroke="#B0B0B0" stroke-linecap="round" stroke-linejoin="round"/>
<path d="M262.02 418.22V425.6" stroke="#B0B0B0" stroke-linecap="round" stroke-linejoin="round"/>
<path d="M266.08 418.22V425.6" stroke="#B0B0B0" stroke-linecap="round" stroke-linejoin="round"/>
<path d="M270.147 418.22V425.6" stroke="#B0B0B0" stroke-linecap="round" stroke-linejoin="round"/>
<path d="M244.74 222.5L196.7 314.21H219.873V305.21H208.113L244.74 237.46L281.367 305.21H269.673V314.21H292.78L244.74 222.5Z" fill="white" stroke="#263238" stroke-linecap="round" stroke-linejoin="round"/>
<path d="M219.84 314.21H196.7V322.5H219.84V314.21Z" fill="white" stroke="#263238" stroke-linecap="round" stroke-linejoin="round"/>
<path d="M207.393 336.05H200.52V420.73H207.393V336.05Z" fill="white" stroke="#263238" stroke-linecap="round" stroke-linejoin="round"/>
<path d="M207.787 332.96H200.127V336.16H207.787V332.96Z" fill="white" stroke="#263238" stroke-linecap="round" stroke-linejoin="round"/>
<path d="M208.313 322.61H199.6V333.14H208.313V322.61Z" fill="white" stroke="#263238" stroke-linecap="round" stroke-linejoin="round"/>
<path d="M200.127 416.27H207.787V413.07H200.127V416.27Z" fill="white" stroke="#263238" stroke-linecap="round" stroke-linejoin="round"/>
<path d="M199.6 426.62H208.313V416.09H199.6V426.62Z" fill="white" stroke="#263238" stroke-linecap="round" stroke-linejoin="round"/>
<path d="M217.633 336.05H210.76V420.73H217.633V336.05Z" fill="white" stroke="#263238" stroke-linecap="round" stroke-linejoin="round"/>
<path d="M218.033 332.96H210.373V336.16H218.033V332.96Z" fill="white" stroke="#263238" stroke-linecap="round" stroke-linejoin="round"/>
<path d="M218.56 322.61H209.847V333.14H218.56V322.61Z" fill="white" stroke="#263238" stroke-linecap="round" stroke-linejoin="round"/>
<path d="M210.367 416.27H218.027V413.07H210.367V416.27Z" fill="white" stroke="#263238" stroke-linecap="round" stroke-linejoin="round"/>
<path d="M209.84 426.62H218.553V416.09H209.84V426.62Z" fill="white" stroke="#263238" stroke-linecap="round" stroke-linejoin="round"/>
<path d="M292.773 314.21H269.633V322.5H292.773V314.21Z" fill="white" stroke="#263238" stroke-linecap="round" stroke-linejoin="round"/>
<path d="M280.327 336.05H273.453V420.73H280.327V336.05Z" fill="white" stroke="#263238" stroke-linecap="round" stroke-linejoin="round"/>
<path d="M280.72 332.96H273.06V336.16H280.72V332.96Z" fill="white" stroke="#263238" stroke-linecap="round" stroke-linejoin="round"/>
<path d="M281.247 322.61H272.533V333.14H281.247V322.61Z" fill="white" stroke="#263238" stroke-linecap="round" stroke-linejoin="round"/>
<path d="M273.06 416.27H280.72V413.07H273.06V416.27Z" fill="white" stroke="#263238" stroke-linecap="round" stroke-linejoin="round"/>
<path d="M272.533 426.62H281.247V416.09H272.533V426.62Z" fill="white" stroke="#263238" stroke-linecap="round" stroke-linejoin="round"/>
<path d="M290.567 336.05H283.693V420.73H290.567V336.05Z" fill="white" stroke="#263238" stroke-linecap="round" stroke-linejoin="round"/>
<path d="M290.967 332.96H283.307V336.16H290.967V332.96Z" fill="white" stroke="#263238" stroke-linecap="round" stroke-linejoin="round"/>
<path d="M291.487 322.61H282.773V333.14H291.487V322.61Z" fill="white" stroke="#263238" stroke-linecap="round" stroke-linejoin="round"/>
<path d="M283.3 416.27H290.96V413.07H283.3V416.27Z" fill="white" stroke="#263238" stroke-linecap="round" stroke-linejoin="round"/>
<path d="M282.78 426.62H291.493V416.09H282.78V426.62Z" fill="white" stroke="#263238" stroke-linecap="round" stroke-linejoin="round"/>
<path d="M136.833 370.91H130.233V383.38H136.833V370.91Z" fill="#CCCCCC"/>
<path d="M128.867 338.66H123.5V352.59H128.867V338.66Z" fill="#CCCCCC"/>
<path d="M128.867 355.52H123.5V367.99H128.867V355.52Z" fill="#CCCCCC"/>
<path d="M136.833 355.52H130.233V367.99H136.833V355.52Z" fill="#CCCCCC"/>
<path d="M128.867 370.91H123.5V383.38H128.867V370.91Z" fill="#CCCCCC"/>
<path d="M136.833 338.66H130.233V352.59H136.833V338.66Z" fill="#CCCCCC"/>
<path d="M128.867 386.31H123.5V402.3H128.867V386.31Z" fill="#CCCCCC"/>
<path d="M136.833 386.31H130.233V402.3H136.833V386.31Z" fill="#CCCCCC"/>
<path d="M122.127 386.31H115.667V402.3H122.127V386.31Z" fill="#CCCCCC"/>
<path d="M122.127 370.91H115.667V383.38H122.127V370.91Z" fill="#CCCCCC"/>
<path d="M122.127 355.52H115.667V367.99H122.127V355.52Z" fill="#CCCCCC"/>
<path d="M122.127 338.66H115.667V352.59H122.127V338.66Z" fill="#CCCCCC"/>
<path d="M162.187 370.91H155.587V383.38H162.187V370.91Z" fill="#CCCCCC"/>
<path d="M154.22 338.66H148.853V352.59H154.22V338.66Z" fill="#CCCCCC"/>
<path d="M154.22 355.52H148.853V367.99H154.22V355.52Z" fill="#CCCCCC"/>
<path d="M162.187 355.52H155.587V367.99H162.187V355.52Z" fill="#CCCCCC"/>
<path d="M154.22 370.91H148.853V383.38H154.22V370.91Z" fill="#CCCCCC"/>
<path d="M162.187 338.66H155.587V352.59H162.187V338.66Z" fill="#CCCCCC"/>
<path d="M154.22 386.31H148.853V402.3H154.22V386.31Z" fill="#CCCCCC"/>
<path d="M162.187 386.31H155.587V402.3H162.187V386.31Z" fill="#CCCCCC"/>
<path d="M147.487 386.31H141.027V402.3H147.487V386.31Z" fill="#CCCCCC"/>
<path d="M147.487 370.91H141.027V383.38H147.487V370.91Z" fill="#CCCCCC"/>
<path d="M147.487 355.52H141.027V367.99H147.487V355.52Z" fill="#CCCCCC"/>
<path d="M147.487 338.66H141.027V352.59H147.487V338.66Z" fill="#CCCCCC"/>
<path d="M187.547 370.91H180.947V383.38H187.547V370.91Z" fill="#CCCCCC"/>
<path d="M179.573 338.66H174.207V352.59H179.573V338.66Z" fill="#CCCCCC"/>
<path d="M179.573 355.52H174.207V367.99H179.573V355.52Z" fill="#CCCCCC"/>
<path d="M187.547 355.52H180.947V367.99H187.547V355.52Z" fill="#CCCCCC"/>
<path d="M179.573 370.91H174.207V383.38H179.573V370.91Z" fill="#CCCCCC"/>
<path d="M187.547 338.66H180.947V352.59H187.547V338.66Z" fill="#CCCCCC"/>
<path d="M179.573 386.31H174.207V402.3H179.573V386.31Z" fill="#CCCCCC"/>
<path d="M187.547 386.31H180.947V402.3H187.547V386.31Z" fill="#CCCCCC"/>
<path d="M172.84 386.31H166.38V402.3H172.84V386.31Z" fill="#CCCCCC"/>
<path d="M172.84 370.91H166.38V383.38H172.84V370.91Z" fill="#CCCCCC"/>
<path d="M172.84 355.52H166.38V367.99H172.84V355.52Z" fill="#CCCCCC"/>
<path d="M172.84 338.66H166.38V352.59H172.84V338.66Z" fill="#CCCCCC"/>
<path d="M190.44 331.92H112.327V407.34H190.44V331.92Z" stroke="#263238" stroke-linecap="round" stroke-linejoin="round"/>
<path d="M325.607 370.91H319.007V383.38H325.607V370.91Z" fill="#CCCCCC"/>
<path d="M317.64 338.66H312.273V352.59H317.64V338.66Z" fill="#CCCCCC"/>
<path d="M317.64 355.52H312.273V367.99H317.64V355.52Z" fill="#CCCCCC"/>
<path d="M325.607 355.52H319.007V367.99H325.607V355.52Z" fill="#CCCCCC"/>
<path d="M317.64 370.91H312.273V383.38H317.64V370.91Z" fill="#CCCCCC"/>
<path d="M325.607 338.66H319.007V352.59H325.607V338.66Z" fill="#CCCCCC"/>
<path d="M317.64 386.31H312.273V402.3H317.64V386.31Z" fill="#CCCCCC"/>
<path d="M325.607 386.31H319.007V402.3H325.607V386.31Z" fill="#CCCCCC"/>
<path d="M310.907 386.31H304.447V402.3H310.907V386.31Z" fill="#CCCCCC"/>
<path d="M310.907 370.91H304.447V383.38H310.907V370.91Z" fill="#CCCCCC"/>
<path d="M310.907 355.52H304.447V367.99H310.907V355.52Z" fill="#CCCCCC"/>
<path d="M310.907 338.66H304.447V352.59H310.907V338.66Z" fill="#CCCCCC"/>
<path d="M350.96 370.91H344.36V383.38H350.96V370.91Z" fill="#CCCCCC"/>
<path d="M342.993 338.66H337.627V352.59H342.993V338.66Z" fill="#CCCCCC"/>
<path d="M342.993 355.52H337.627V367.99H342.993V355.52Z" fill="#CCCCCC"/>
<path d="M350.96 355.52H344.36V367.99H350.96V355.52Z" fill="#CCCCCC"/>
<path d="M342.993 370.91H337.627V383.38H342.993V370.91Z" fill="#CCCCCC"/>
<path d="M350.96 338.66H344.36V352.59H350.96V338.66Z" fill="#CCCCCC"/>
<path d="M342.993 386.31H337.627V402.3H342.993V386.31Z" fill="#CCCCCC"/>
<path d="M350.96 386.31H344.36V402.3H350.96V386.31Z" fill="#CCCCCC"/>
<path d="M336.26 386.31H329.8V402.3H336.26V386.31Z" fill="#CCCCCC"/>
<path d="M336.26 370.91H329.8V383.38H336.26V370.91Z" fill="#CCCCCC"/>
<path d="M336.26 355.52H329.8V367.99H336.26V355.52Z" fill="#CCCCCC"/>
<path d="M336.26 338.66H329.8V352.59H336.26V338.66Z" fill="#CCCCCC"/>
<path d="M376.32 370.91H369.72V383.38H376.32V370.91Z" fill="#CCCCCC"/>
<path d="M368.347 338.66H362.987V352.59H368.347V338.66Z" fill="#CCCCCC"/>
<path d="M368.347 355.52H362.987V367.99H368.347V355.52Z" fill="#CCCCCC"/>
<path d="M376.32 355.52H369.72V367.99H376.32V355.52Z" fill="#CCCCCC"/>
<path d="M368.347 370.91H362.987V383.38H368.347V370.91Z" fill="#CCCCCC"/>
<path d="M376.32 338.66H369.72V352.59H376.32V338.66Z" fill="#CCCCCC"/>
<path d="M368.347 386.31H362.987V402.3H368.347V386.31Z" fill="#CCCCCC"/>
<path d="M376.32 386.31H369.72V402.3H376.32V386.31Z" fill="#CCCCCC"/>
<path d="M361.62 386.31H355.16V402.3H361.62V386.31Z" fill="#CCCCCC"/>
<path d="M361.62 370.91H355.16V383.38H361.62V370.91Z" fill="#CCCCCC"/>
<path d="M361.62 355.52H355.16V367.99H361.62V355.52Z" fill="#CCCCCC"/>
<path d="M361.62 338.66H355.16V352.59H361.62V338.66Z" fill="#CCCCCC"/>
<path d="M379.213 331.92H301.1V407.34H379.213V331.92Z" stroke="#263238" stroke-linecap="round" stroke-linejoin="round"/>
<path d="M469.993 427.22H475.173" stroke="#263238" stroke-linecap="round" stroke-linejoin="round"/>
<path d="M27.36 427.22H462.86" stroke="#263238" stroke-linecap="round" stroke-linejoin="round"/>
<path d="M16.9933 427.22H21.5267" stroke="#263238" stroke-linecap="round" stroke-linejoin="round"/>
<path d="M419.333 346.32C419.333 346.32 418.22 384.92 418.36 406.84C418.5 428.76 420.307 465.34 420.307 465.34L419.06 468.89L419.193 474.11L427.267 477.66L427.82 473.28C427.82 473.28 429.213 471.61 429.213 470.56C429.213 469.51 429.073 463.88 429.073 462.21C429.073 460.54 433.667 382.91 433.667 382.91L435.613 382.7L444.52 468.06L442.667 469.73L445.173 477.03L449.347 474.94L453.8 475.36C454.304 473.601 454.723 471.789 455.053 469.94C455.053 469.1 453.52 468.06 453.52 466.6C453.52 465.14 452 377.41 452 377.41L449.333 346.32H419.333Z" fill="#263238" stroke="#263238" stroke-miterlimit="10"/>
<path d="M419.173 474.11L414.587 479.54C414.587 479.54 408.74 482.88 408.88 484.34C409.02 485.8 410.133 486.01 410.967 486.01H427.527L427.247 477.66L419.173 474.11Z" fill="white" stroke="#263238" stroke-miterlimit="10"/>
<path d="M445.193 477C445.193 477 447 485.77 447.56 486.81C448.12 487.85 453.267 491.19 454.653 490.57C456.04 489.95 457.58 487.02 457.02 484.1C456.46 481.18 453.82 475.33 453.82 475.33L449.367 474.91L445.193 477Z" fill="white" stroke="#263238" stroke-miterlimit="10"/>
<path d="M434.067 270.77L427.107 272.23C427.107 272.23 424.047 283.91 422.933 303.32C421.82 322.73 422.793 346.94 422.793 346.94H446.447C446.447 346.94 452.567 295.18 450.62 286.63C449.521 281.64 447.771 277.027 445.473 273.06L434.067 270.77Z" fill="white" stroke="#263238" stroke-miterlimit="10"/>
<path d="M428.22 278.7C428.22 278.7 425.02 294.56 425.02 308.33C425.02 322.1 426.413 372.19 426.413 372.19L413.613 368.19L416.667 335.46L415.273 300.4L404.56 317.31L396.56 310.49C396.56 310.49 414.3 274.31 414.86 274.11C415.42 273.91 430.667 269.5 430.667 269.5L428.22 278.7Z" fill="#1FA3A2" stroke="#263238" stroke-miterlimit="10"/>
<path d="M414.507 288.46L415.28 300.4L412.5 287.46" stroke="#263238" stroke-miterlimit="10"/>
<path d="M414.167 283.29L414.333 285.86" stroke="#263238" stroke-miterlimit="10"/>
<path d="M444.353 270.06C444.353 270.06 460.1 276.06 460.66 276.22C461.22 276.38 478.307 323.36 478.307 323.36L470.653 328.36L456.473 302.14L453.54 340.04L457.3 369.04L440.74 370.92L439.333 341.31L442.253 277.24L444.353 270.06Z" fill="#1FA3A2" stroke="#263238" stroke-miterlimit="10"/>
<path d="M454.32 292.47L456.473 302.15L453.067 295.96" stroke="#263238" stroke-miterlimit="10"/>
<path d="M429.82 232.69C429.82 232.69 427.233 229.92 427.48 228.62C427.727 227.32 433.393 222.34 434.253 221.79C435.113 221.24 445.46 224.56 447.187 226.22C448.913 227.88 450.753 237.68 451 242.29C451.247 246.9 443.613 256 443.613 256L438.687 256.18L439.3 250.64L434.253 249.16L435.113 242.88L430.56 235.3L431.787 231.05L429.82 232.69Z" fill="#263238" stroke="#263238" stroke-miterlimit="10"/>
<path d="M431.453 265.82L427.273 274C427.273 274 425.133 282.45 425.62 282C426.107 281.55 428.727 277.77 428.727 277.77L434.993 283.48L442.24 278.06L445.833 283.89C445.833 283.89 446.613 267.42 446.033 266.11C445.453 264.8 442.34 263.77 441.56 263.63C440.78 263.49 431.453 265.82 431.453 265.82Z" fill="white" stroke="#263238" stroke-miterlimit="10"/>
<path d="M431.293 228.62C431.293 228.62 425.88 237.31 426.493 239.15C426.839 240.138 427.088 241.196 427.233 242.29C427.233 242.29 422.92 248.02 423.54 249.13C424.244 250.138 425.03 251.008 425.88 251.72C425.88 251.72 425.14 259.48 425.88 261.32C426.62 263.16 430.68 262.06 430.68 262.06C430.68 262.06 433.513 284.97 434.993 283.49C436.473 282.01 443.487 268.34 443.367 266.68C443.247 265.02 443.613 256.52 443.613 255.97C443.613 255.42 441.147 255.78 441.147 255.78C441.147 255.78 444.353 248.78 443.147 246.73C441.94 244.68 439.453 245.25 438.587 246.17C438.075 246.727 437.625 247.402 437.253 248.17L435.92 247.61C436.343 246.226 436.712 244.807 437.027 243.36C437.153 242.44 434.193 238.01 434.32 237.27C434.435 236.932 434.583 236.622 434.76 236.35C435.74 234.64 438.013 231.35 438.013 231.35L431.293 228.62Z" fill="white" stroke="#263238" stroke-miterlimit="10"/>
<path d="M429.653 243.87C429.6 244.78 429.347 245.48 429.093 245.45C428.84 245.42 428.68 244.65 428.74 243.74C428.8 242.83 429.047 242.13 429.3 242.17C429.553 242.21 429.713 243 429.653 243.87Z" fill="#263238"/>
<path d="M428.24 239.46C428.24 239.46 429.8 237.76 430.86 239.99" stroke="#263238" stroke-miterlimit="10"/>
<path d="M426.667 253.37C426.667 253.37 429.64 253.68 431.127 251.03" stroke="#263238" stroke-miterlimit="10"/>
<path d="M430.68 262.06L435.18 261.12L431.427 267.59L430.68 262.06Z" fill="#263238" stroke="#263238" stroke-miterlimit="10"/>
<path d="M405.047 340.75L408.267 336.14L404.813 332.57L405.047 340.75Z" fill="white" stroke="#263238" stroke-miterlimit="10"/>
<path d="M406.58 323.59L409.12 327.99L407.193 338.1L403.927 334.11L406.58 323.59Z" fill="white" stroke="#263238" stroke-miterlimit="10"/>
<path d="M399.62 304C399.62 304 395.62 311.41 394.953 313.77C394.287 316.13 405.06 340.71 405.06 340.71L407.667 325.16L405.747 316.52L406.627 311.52L402.293 309.02" fill="#1FA3A2"/>
<path d="M399.62 304C399.62 304 395.62 311.41 394.953 313.77C394.287 316.13 405.06 340.71 405.06 340.71L407.667 325.16L405.747 316.52L406.627 311.52L402.293 309.02" stroke="#263238" stroke-miterlimit="10"/>
<path d="M408.807 327.73L414.22 326.6C414.22 326.6 418.107 331.88 418.293 332.6C418.445 333.332 418.412 334.122 418.2 334.82C418.056 335.465 417.801 336.041 417.46 336.49C417.46 336.49 415.98 341.91 415.7 342.61C415.42 343.31 413.753 343.03 413.107 342.89C412.46 342.75 407.193 338.12 407.193 338.12L408.807 327.73Z" fill="white" stroke="#263238" stroke-miterlimit="10"/>
<path d="M461.92 328.55L460.527 331.19L462.76 339.86L465.72 337.31L461.92 328.55Z" fill="white" stroke="#263238" stroke-miterlimit="10"/>
<path d="M469.733 315.76L460.993 328.41L466.92 339.67C466.92 339.67 478.813 325.07 478.167 322.67C477.52 320.27 474.733 314.47 474.733 314.47" fill="#1FA3A2"/>
<path d="M469.733 315.76L460.993 328.41L466.92 339.67C466.92 339.67 478.813 325.07 478.167 322.67C477.52 320.27 474.733 314.47 474.733 314.47" stroke="#263238" stroke-miterlimit="10"/>
<path d="M460.527 331.19L455.433 329.8C455.433 329.8 451.54 335.08 451.353 335.8C451.202 336.532 451.235 337.322 451.447 338.02C451.592 338.664 451.847 339.239 452.187 339.69C452.187 339.69 453.667 345.11 453.947 345.81C454.227 346.51 455.893 346.22 456.54 346.08C457.187 345.94 462.233 337.97 462.233 337.97L460.527 331.19Z" fill="white" stroke="#263238" stroke-miterlimit="10"/>
</svg>
